<svg width="85" height="85" viewBox="0 0 85 85" fill="none" xmlns="http://www.w3.org/2000/svg">
<g clip-path="url(#clip0_93_2)">
<path d="M26.5696 0H35.7V3.81792H30.3875V7.63583H35.7V11.4537H26.5696V0ZM37.524 0H46.6579V3.32208H41.3454V3.98437H46.6579V11.6202H37.524V8.13521H42.8365V7.46937H37.524V0ZM48.4854 0H57.6123V3.32208H52.2998V3.98437H57.6123V11.6202H48.4854V8.13521H53.7979V7.46937H48.4854V0Z" fill="white"/>
<path fill-rule="evenodd" clip-rule="evenodd" d="M42.4681 85L17.8748 78.1717L10.625 16.706H74.375L67.1288 78.1646L42.4681 85ZM24.9581 44.5294L25.6346 52.066H51.7615L50.8867 61.841L42.4788 64.1148H42.4717L34.0779 61.8481L33.5396 55.8379H25.971L27.0265 67.6742L42.4681 71.9596L57.9346 67.6742L59.8187 46.5517L60.0029 44.5294L61.3629 29.2683H23.6017L24.2887 36.8085H53.1038L52.4167 44.5294H24.9581V44.5294Z" fill="white"/>
</g>
<defs>
<clipPath id="clip0_93_2">
<rect width="85" height="85" fill="white"/>
</clipPath>
</defs>
</svg>
